<?xml version="1.0" encoding="UTF-8" standalone="no"?>
<svg
   version="1.1"
   width="15"
   height="15"
   viewBox="0 0 15 15"
   xml:space="preserve"
   id="svg1"
   sodipodi:docname="Mediamodifier-Design.svg"
   inkscape:version="1.3.2 (091e20e, 2023-11-25, custom)"
   xmlns:inkscape="http://www.inkscape.org/namespaces/inkscape"
   xmlns:sodipodi="http://sodipodi.sourceforge.net/DTD/sodipodi-0.dtd"
   xmlns="http://www.w3.org/2000/svg"
   xmlns:svg="http://www.w3.org/2000/svg"><sodipodi:namedview
   id="namedview1"
   pagecolor="#ffffff"
   bordercolor="#111111"
   borderopacity="1"
   inkscape:showpageshadow="0"
   inkscape:pageopacity="0"
   inkscape:pagecheckerboard="1"
   inkscape:deskcolor="#d1d1d1"
   inkscape:zoom="0.71944444"
   inkscape:cx="540"
   inkscape:cy="540"
   inkscape:window-width="1920"
   inkscape:window-height="991"
   inkscape:window-x="-9"
   inkscape:window-y="-9"
   inkscape:window-maximized="1"
   inkscape:current-layer="svg1" />
<desc
   id="desc1">Created with Fabric.js 5.2.4</desc>
<defs
   id="defs1">
</defs>



<g
   transform="matrix(2.34 0 0 2.34 540 540)"
   id="g1">
<path
   style="fill:#ffffff;stroke-width:1.38996"
   d="m 399.30248,694.94453 c -3.24302,-1.36358 -4.78004,-3.22129 -5.92198,-7.15752 -1.09797,-3.78466 -1.42328,-47.22453 -1.12931,-150.8027 l 0.4129,-145.48674 3.4315,-3.6524 c 2.52668,-2.68933 4.55332,-3.54343 7.68595,-3.23913 3.6085,0.35052 89.83883,43.49241 264.75506,132.4596 42.3621,21.54653 44.20107,23.00977 39.99733,31.8251 -1.88994,3.96323 -14.743,10.38782 -147.696,73.82551 -80.09425,38.21649 -148.22011,70.51622 -151.39079,71.77718 -4.9465,1.96718 -6.38664,2.03123 -10.14466,0.4511 z"
   id="path2"
   transform="matrix(0.42735043,0,0,0.42735043,-230.76923,-230.76923)" /><path
   style="display:inline;opacity:1;fill:#f61c0d;fill-rule:nonzero;stroke:none;stroke-width:1;stroke-linecap:butt;stroke-linejoin:miter;stroke-miterlimit:4;stroke-dasharray:none;stroke-dashoffset:0"
   transform="translate(-230.5,-230.5)"
   d="M 365.257,67.393 H 95.744 C 42.866,67.393 0,110.259 0,163.137 v 134.728 c 0,52.878 42.866,95.744 95.744,95.744 h 269.513 c 52.878,0 95.744,-42.866 95.744,-95.744 V 163.137 c 0,-52.878 -42.866,-95.744 -95.744,-95.744 z m -64.751,169.663 -126.06,60.123 c -3.359,1.602 -7.239,-0.847 -7.239,-4.568 V 168.607 c 0,-3.774 3.982,-6.22 7.348,-4.514 l 126.06,63.881 c 3.748,1.899 3.683,7.274 -0.109,9.082 z"
   stroke-linecap="round"
   id="path1" />
</g>
</svg>
